<svg width="425" height="77" viewBox="0 0 425 77" fill="none" xmlns="http://www.w3.org/2000/svg">
<g clip-path="url(#clip0)">
<path fill-rule="evenodd" clip-rule="evenodd" d="M73.5715 29.1499C78.7713 34.3199 78.7713 42.6799 73.5715 47.7949C68.3717 52.9649 59.9636 52.9649 54.8191 47.7949C49.6193 42.6249 49.6193 34.2649 54.8191 29.1499C59.9636 23.9799 68.3717 23.9799 73.5715 29.1499ZM64.1676 16.4999C69.81 16.4999 75.5076 18.6449 79.8223 22.9349C88.4518 31.5149 88.4518 45.4299 79.8223 54.0649C71.1929 62.6449 57.1977 62.6449 48.5129 54.0649C39.8835 45.4849 39.8835 31.5699 48.5129 22.9349C52.8277 18.6449 58.47 16.4999 64.1676 16.4999ZM120.038 29.1499C125.238 34.3199 125.238 42.6799 120.038 47.7949C114.838 52.9649 106.43 52.9649 101.285 47.7949C96.0855 42.6249 96.0855 34.2649 101.285 29.1499C106.43 23.9799 114.838 23.9799 120.038 29.1499ZM126.289 22.9349C134.918 31.5149 134.918 45.4299 126.289 54.0649C117.659 62.6449 103.664 62.6449 94.9792 54.0649C86.3497 45.4849 86.3497 31.5699 94.9792 22.9349C99.2939 18.6449 104.936 16.4999 110.634 16.4999C116.332 16.4999 121.974 18.6449 126.289 22.9349ZM8.85071 60.3899L11.0634 60.4999H44.2535L44.1429 58.2999C43.8663 54.6699 41.2664 52.0299 37.6155 51.8099L35.4028 51.6999H15.4887L42.0409 25.2999L41.9302 23.0999C41.7643 19.4699 39.0538 16.7749 35.4028 16.6099L33.1902 16.4999H0L0.110634 18.6999C0.387219 22.2749 3.04243 24.9699 6.63803 25.1899L8.85071 25.2999H28.7648L2.21268 51.6999L2.32331 53.8999C2.54458 57.5299 5.19979 60.1149 8.85071 60.3899ZM160.308 29.6999C161.083 31.0199 161.304 32.4499 161.415 34.0999L161.525 36.2999V51.6999L161.636 53.8999C161.857 57.4749 164.513 60.1699 168.163 60.3899L170.376 60.4999V36.2999L170.487 34.0999C170.597 32.4499 170.819 30.9649 171.593 29.6449C173.142 27.0049 175.963 25.2999 179.227 25.2999C182.491 25.2999 185.367 27.0599 186.916 29.6999C187.69 31.0199 187.912 32.5049 187.967 34.0999L188.078 36.2999V51.6999L188.188 53.8999C188.409 57.5299 191.065 60.1699 194.716 60.3899L196.928 60.4999V36.2999V34.0999C196.928 24.3649 189.018 16.4999 179.227 16.4999C173.916 16.4999 169.214 18.8099 165.951 22.4399C162.687 18.8099 157.985 16.4999 152.675 16.4999C149.024 16.4999 145.594 17.5999 142.773 19.5249C141.058 17.5999 137.186 16.4999 134.973 16.4999V60.4999L137.186 60.3899C140.892 60.1699 143.547 57.5299 143.713 53.8999L143.824 51.6999V36.2999L143.935 34.0999C144.045 32.4499 144.267 30.9649 145.041 29.6999C146.59 27.0599 149.411 25.2999 152.675 25.2999C155.938 25.2999 158.815 27.0599 160.308 29.6999Z" fill="#0E71EB"/>
<path d="M203.622 16.4999H204.009C205.226 16.4999 206.222 17.4899 206.222 18.6999L206.277 28.4349C209.873 21.3399 217.23 16.5549 225.748 16.5549C238.084 16.5549 248.097 26.6199 247.875 38.9949C247.654 50.7649 237.863 60.3899 226.025 60.5549C217.396 60.6649 209.873 55.8249 206.222 48.6749L206.166 74.9099C206.166 76.1199 205.171 77.1099 203.954 77.1099H203.566V16.4999H203.622ZM225.748 58.0249C236.591 58.0249 245.22 49.2799 245.22 38.4999C245.22 27.6649 236.591 18.9199 225.748 18.9199C214.906 18.9199 206.277 27.6649 206.222 38.4999C206.222 49.2799 214.962 58.0249 225.748 58.0249Z" fill="#838292"/>
<path d="M287.537 60.4999C286.32 60.4999 285.325 59.5099 285.325 58.2999V33.6049C285.325 25.5199 278.742 18.9749 270.666 18.9749C261.87 18.9749 254.79 26.0149 254.79 34.8149V58.2999C254.79 59.5099 253.794 60.4999 252.577 60.4999H252.245V-0.00012207H252.632C253.849 -0.00012207 254.845 0.989878 254.845 2.19988V25.6299C257.998 20.1299 263.862 16.4999 270.721 16.4999C280.18 16.4999 287.869 24.0899 287.869 33.5499V60.4449H287.537V60.4999Z" fill="#838292"/>
<path d="M314.366 60.4449C302.196 60.4449 292.239 50.5999 292.239 38.4449C292.239 26.3449 302.196 16.4999 314.366 16.4999C326.646 16.4999 336.603 26.3449 336.603 38.4449C336.548 50.6549 326.591 60.4449 314.366 60.4449ZM314.366 18.9199C303.635 18.9199 294.894 27.6649 294.894 38.4449C294.894 49.2799 303.635 58.0249 314.366 58.0249C325.208 58.0249 333.893 49.2799 333.893 38.4449C333.893 27.6649 325.153 18.9199 314.366 18.9199Z" fill="#838292"/>
<path d="M376.155 60.4997C374.938 60.4997 373.943 59.5097 373.943 58.2997V33.6047C373.943 25.7397 367.36 18.9747 359.284 18.9747C350.654 18.9747 343.463 26.0697 343.463 34.9247V58.3547C343.463 59.5647 342.467 60.5547 341.251 60.5547H340.863V16.5547H341.251C342.467 16.5547 343.463 17.5447 343.463 18.7547V25.9047C346.561 20.4597 352.259 16.5547 359.284 16.5547C368.854 16.5547 376.543 24.0347 376.543 33.6047V60.4997H376.155Z" fill="#838292"/>
<path d="M425 39.6551H383.513C384.232 49.8851 392.529 58.0251 402.929 58.0251C409.401 58.0251 414.988 54.7801 418.639 49.8301C419.358 48.8401 420.796 48.6201 421.792 49.3351L422.013 49.5001C417.809 56.5401 410.01 61.1601 401.048 60.3901C390.815 59.5101 382.406 51.5901 381.079 41.4701C379.253 27.9951 389.819 16.4451 403.04 16.5001C415.154 16.5551 425.056 26.8401 425.056 38.8851V39.6551H425ZM422.345 37.2351C421.681 27.0051 413.273 18.9201 402.929 18.9201C392.529 18.9201 384.232 26.9501 383.513 37.2351H422.345Z" fill="#838292"/>
</g>
<defs>
<clipPath id="clip0">
<rect width="425" height="77" fill="white"/>
</clipPath>
</defs>
</svg>
