<svg width="16" height="16" viewBox="0 0 16 16" fill="none" xmlns="http://www.w3.org/2000/svg">
<path d="M8 0.5C11.0336 0.499874 13.7686 2.32719 14.9296 5.12986C16.0906 7.93254 15.449 11.1586 13.3039 13.3037C11.1589 15.4489 7.93281 16.0906 5.1301 14.9297C2.32738 13.7688 0.499975 11.0339 0.5 8.00025C0.500017 3.85808 3.85783 0.500155 8 0.5ZM4.74553 10.3669C4.50725 10.6121 4.5101 11.0033 4.75194 11.2451C4.99378 11.4869 5.38495 11.4896 5.63016 11.2512L7.99672 8.88465L10.3668 11.2547C10.612 11.4934 11.0035 11.4908 11.2454 11.2488C11.4874 11.0068 11.4899 10.6153 11.2512 10.3701L8.88125 8.00022L11.2604 5.62116C11.4965 5.37559 11.4926 4.98627 11.2518 4.7454C11.0109 4.50453 10.6216 4.5007 10.376 4.73678L7.99672 7.11562L5.62112 4.74C5.37686 4.49571 4.98081 4.49569 4.73652 4.73995C4.49222 4.98422 4.4922 5.38027 4.73647 5.62456L7.11216 8.00019L4.74553 10.3669Z" fill="#ADADB3"/>
</svg>
